<svg width="36" height="36" viewBox="0 0 36 36" fill="none" xmlns="http://www.w3.org/2000/svg">
<circle cx="18" cy="18" r="18" fill="#2B7FFF"/>
<path d="M20 24V12C20 11.4696 19.7893 10.9609 19.4142 10.5858C19.0391 10.2107 18.5304 10 18 10H10C9.46957 10 8.96086 10.2107 8.58579 10.5858C8.21071 10.9609 8 11.4696 8 12V23C8 23.2652 8.10536 23.5196 8.29289 23.7071C8.48043 23.8946 8.73478 24 9 24H11" stroke="white" stroke-linecap="round" stroke-linejoin="round"/>
<path d="M21 24H15" stroke="white" stroke-linecap="round" stroke-linejoin="round"/>
<path d="M25 24H27C27.2652 24 27.5196 23.8946 27.7071 23.7071C27.8946 23.5196 28 23.2652 28 23V19.35C27.9996 19.1231 27.922 18.903 27.78 18.726L24.3 14.376C24.2065 14.2589 24.0878 14.1643 23.9528 14.0992C23.8178 14.0341 23.6699 14.0002 23.52 14H20" stroke="white" stroke-linecap="round" stroke-linejoin="round"/>
<path d="M23 26C24.1046 26 25 25.1046 25 24C25 22.8954 24.1046 22 23 22C21.8954 22 21 22.8954 21 24C21 25.1046 21.8954 26 23 26Z" stroke="white" stroke-linecap="round" stroke-linejoin="round"/>
<path d="M13 26C14.1046 26 15 25.1046 15 24C15 22.8954 14.1046 22 13 22C11.8954 22 11 22.8954 11 24C11 25.1046 11.8954 26 13 26Z" stroke="white" stroke-linecap="round" stroke-linejoin="round"/>
</svg>
